<svg width="98" height="53" viewBox="0 0 98 53" fill="none" xmlns="http://www.w3.org/2000/svg">
<path d="M8.61241 23.336C6.94841 23.336 5.54841 22.968 4.41241 22.232C3.27641 21.48 2.47641 20.464 2.01241 19.184L4.84441 17.528C5.50041 19.24 6.78841 20.096 8.70841 20.096C9.63641 20.096 10.3164 19.928 10.7484 19.592C11.1804 19.256 11.3964 18.832 11.3964 18.32C11.3964 17.728 11.1324 17.272 10.6044 16.952C10.0764 16.616 9.13241 16.256 7.77241 15.872C7.02041 15.648 6.38041 15.424 5.85241 15.2C5.34041 14.976 4.82041 14.68 4.29241 14.312C3.78041 13.928 3.38841 13.448 3.11641 12.872C2.84441 12.296 2.70841 11.624 2.70841 10.856C2.70841 9.336 3.24441 8.128 4.31641 7.232C5.40441 6.32 6.70841 5.864 8.22841 5.864C9.58841 5.864 10.7804 6.2 11.8044 6.872C12.8444 7.528 13.6524 8.448 14.2284 9.632L11.4444 11.24C10.7724 9.8 9.70041 9.08 8.22841 9.08C7.54041 9.08 6.99641 9.24 6.59641 9.56C6.21241 9.864 6.02041 10.264 6.02041 10.76C6.02041 11.288 6.23641 11.72 6.66841 12.056C7.11641 12.376 7.96441 12.728 9.21241 13.112C9.72441 13.272 10.1084 13.4 10.3644 13.496C10.6364 13.576 10.9964 13.712 11.4444 13.904C11.9084 14.08 12.2604 14.248 12.5004 14.408C12.7564 14.568 13.0444 14.784 13.3644 15.056C13.6844 15.328 13.9244 15.608 14.0844 15.896C14.2604 16.184 14.4044 16.536 14.5164 16.952C14.6444 17.352 14.7084 17.792 14.7084 18.272C14.7084 19.824 14.1404 21.056 13.0044 21.968C11.8844 22.88 10.4204 23.336 8.61241 23.336ZM24.6446 11H27.7406V23H24.6446V21.656C23.8926 22.776 22.7006 23.336 21.0686 23.336C19.7566 23.336 18.6686 22.896 17.8046 22.016C16.9566 21.136 16.5326 19.92 16.5326 18.368V11H19.6286V17.984C19.6286 18.784 19.8446 19.4 20.2766 19.832C20.7086 20.248 21.2846 20.456 22.0046 20.456C22.8046 20.456 23.4446 20.208 23.9246 19.712C24.4046 19.216 24.6446 18.472 24.6446 17.48V11ZM37.5602 10.664C39.1762 10.664 40.5522 11.28 41.6882 12.512C42.8402 13.728 43.4162 15.224 43.4162 17C43.4162 18.776 42.8402 20.28 41.6882 21.512C40.5522 22.728 39.1762 23.336 37.5602 23.336C35.8802 23.336 34.5842 22.752 33.6722 21.584V27.8H30.5762V11H33.6722V12.416C34.5842 11.248 35.8802 10.664 37.5602 10.664ZM34.6082 19.448C35.2322 20.072 36.0242 20.384 36.9842 20.384C37.9442 20.384 38.7362 20.072 39.3602 19.448C40.0002 18.808 40.3202 17.992 40.3202 17C40.3202 16.008 40.0002 15.2 39.3602 14.576C38.7362 13.936 37.9442 13.616 36.9842 13.616C36.0242 13.616 35.2322 13.936 34.6082 14.576C33.9842 15.2 33.6722 16.008 33.6722 17C33.6722 17.992 33.9842 18.808 34.6082 19.448ZM48.2156 18.272C48.6316 19.776 49.7596 20.528 51.5996 20.528C52.7836 20.528 53.6796 20.128 54.2876 19.328L56.7836 20.768C55.5996 22.48 53.8556 23.336 51.5516 23.336C49.5676 23.336 47.9756 22.736 46.7756 21.536C45.5756 20.336 44.9756 18.824 44.9756 17C44.9756 15.192 45.5676 13.688 46.7516 12.488C47.9356 11.272 49.4556 10.664 51.3116 10.664C53.0716 10.664 54.5196 11.272 55.6556 12.488C56.8076 13.704 57.3836 15.208 57.3836 17C57.3836 17.4 57.3436 17.824 57.2636 18.272H48.2156ZM48.1676 15.872H54.2876C54.1116 15.056 53.7436 14.448 53.1836 14.048C52.6396 13.648 52.0156 13.448 51.3116 13.448C50.4796 13.448 49.7916 13.664 49.2476 14.096C48.7036 14.512 48.3436 15.104 48.1676 15.872ZM62.6409 13.064C62.9289 12.296 63.4009 11.72 64.0569 11.336C64.7289 10.952 65.4729 10.76 66.2889 10.76V14.216C65.3449 14.104 64.4969 14.296 63.7449 14.792C63.0089 15.288 62.6409 16.112 62.6409 17.264V23H59.5449V11H62.6409V13.064Z" fill="#313131"/>
<path d="M10.0849 34.104V28.2H14.0689V45H10.0849V43.896C9.26894 44.856 8.13294 45.336 6.67694 45.336C5.06094 45.336 3.71694 44.736 2.64494 43.536C1.57294 42.32 1.03694 40.808 1.03694 39C1.03694 37.176 1.57294 35.672 2.64494 34.488C3.71694 33.272 5.06094 32.664 6.67694 32.664C8.13294 32.664 9.26894 33.144 10.0849 34.104ZM5.74094 40.896C6.18894 41.376 6.79694 41.616 7.56494 41.616C8.33294 41.616 8.94094 41.376 9.38894 40.896C9.85294 40.4 10.0849 39.768 10.0849 39C10.0849 38.232 9.85294 37.6 9.38894 37.104C8.94094 36.624 8.33294 36.384 7.56494 36.384C6.79694 36.384 6.18894 36.624 5.74094 37.104C5.27694 37.6 5.04494 38.232 5.04494 39C5.04494 39.768 5.27694 40.4 5.74094 40.896ZM28.1871 40.464H19.9071C20.3071 41.44 21.2031 41.928 22.5951 41.928C23.4431 41.928 24.1711 41.648 24.7791 41.088L27.6591 43.104C26.4911 44.592 24.7711 45.336 22.4991 45.336C20.4671 45.336 18.8351 44.744 17.6031 43.56C16.3871 42.36 15.7791 40.848 15.7791 39.024C15.7791 37.216 16.3791 35.704 17.5791 34.488C18.7791 33.272 20.3071 32.664 22.1631 32.664C23.9551 32.664 25.4351 33.264 26.6031 34.464C27.7711 35.648 28.3551 37.152 28.3551 38.976C28.3551 39.536 28.2991 40.032 28.1871 40.464ZM19.8591 37.704H24.4671C24.1631 36.584 23.4111 36.024 22.2111 36.024C20.9791 36.024 20.1951 36.584 19.8591 37.704ZM33.4133 36.504C33.4133 36.712 33.5813 36.888 33.9173 37.032C34.2693 37.16 34.7973 37.304 35.5013 37.464C35.9813 37.56 36.4213 37.688 36.8213 37.848C37.2373 37.992 37.6453 38.208 38.0453 38.496C38.4613 38.768 38.7813 39.152 39.0053 39.648C39.2453 40.128 39.3653 40.68 39.3653 41.304C39.3653 42.696 38.8533 43.712 37.8293 44.352C36.7893 45.008 35.5733 45.336 34.1813 45.336C31.4933 45.336 29.7013 44.384 28.8053 42.48L32.2853 40.728C32.5893 41.608 33.2133 42.048 34.1573 42.048C34.8773 42.048 35.2373 41.832 35.2373 41.4C35.2373 41.192 35.0693 41.024 34.7333 40.896C34.4133 40.752 33.8933 40.592 33.1733 40.416C32.6933 40.32 32.2533 40.192 31.8533 40.032C31.4693 39.856 31.0693 39.632 30.6533 39.36C30.2533 39.088 29.9413 38.728 29.7173 38.28C29.4933 37.816 29.3813 37.288 29.3813 36.696C29.3813 35.416 29.8533 34.424 30.7973 33.72C31.7413 33.016 32.8773 32.664 34.2053 32.664C36.5573 32.664 38.2053 33.592 39.1493 35.448L35.7893 36.96C35.4373 36.272 34.9413 35.928 34.3013 35.928C33.7093 35.928 33.4133 36.12 33.4133 36.504ZM44.5176 31.344C44.0696 31.792 43.5336 32.016 42.9096 32.016C42.2856 32.016 41.7416 31.792 41.2776 31.344C40.8296 30.88 40.6056 30.336 40.6056 29.712C40.6056 29.088 40.8296 28.552 41.2776 28.104C41.7416 27.656 42.2856 27.432 42.9096 27.432C43.5336 27.432 44.0696 27.656 44.5176 28.104C44.9816 28.552 45.2136 29.088 45.2136 29.712C45.2136 30.336 44.9816 30.88 44.5176 31.344ZM44.9016 45H40.9176V33H44.9016V45ZM55.7674 34.152V33H59.7034V44.52C59.7034 46.376 59.0874 47.776 57.8554 48.72C56.6234 49.68 55.1354 50.16 53.3914 50.16C52.0474 50.16 50.8554 49.904 49.8154 49.392C48.7914 48.896 48.0154 48.176 47.4874 47.232L50.7994 45.312C51.3754 46.224 52.2234 46.68 53.3434 46.68C54.0794 46.68 54.6634 46.488 55.0954 46.104C55.5434 45.736 55.7674 45.208 55.7674 44.52V43.368C54.9514 44.36 53.8314 44.856 52.4074 44.856C50.7594 44.856 49.3914 44.264 48.3034 43.08C47.2314 41.912 46.6954 40.472 46.6954 38.76C46.6954 37.048 47.2314 35.608 48.3034 34.44C49.3914 33.256 50.7594 32.664 52.4074 32.664C53.8314 32.664 54.9514 33.16 55.7674 34.152ZM51.3754 40.56C51.8714 41.024 52.4874 41.256 53.2234 41.256C53.9754 41.256 54.5834 41.024 55.0474 40.56C55.5274 40.08 55.7674 39.48 55.7674 38.76C55.7674 38.024 55.5274 37.432 55.0474 36.984C54.5994 36.504 53.9914 36.264 53.2234 36.264C52.4714 36.264 51.8554 36.504 51.3754 36.984C50.9114 37.448 50.6794 38.04 50.6794 38.76C50.6794 39.464 50.9114 40.064 51.3754 40.56ZM69.3314 32.664C70.6594 32.664 71.7234 33.12 72.5234 34.032C73.3394 34.928 73.7474 36.192 73.7474 37.824V45H69.7634V38.328C69.7634 37.72 69.6034 37.256 69.2834 36.936C68.9634 36.6 68.5234 36.432 67.9634 36.432C67.3394 36.432 66.8514 36.624 66.4994 37.008C66.1634 37.376 65.9954 37.912 65.9954 38.616V45H62.0114V33H65.9954V34.2C66.7154 33.176 67.8274 32.664 69.3314 32.664ZM87.7184 40.464H79.4384C79.8384 41.44 80.7344 41.928 82.1264 41.928C82.9744 41.928 83.7024 41.648 84.3104 41.088L87.1904 43.104C86.0224 44.592 84.3024 45.336 82.0304 45.336C79.9984 45.336 78.3664 44.744 77.1344 43.56C75.9184 42.36 75.3104 40.848 75.3104 39.024C75.3104 37.216 75.9104 35.704 77.1104 34.488C78.3104 33.272 79.8384 32.664 81.6944 32.664C83.4864 32.664 84.9664 33.264 86.1344 34.464C87.3024 35.648 87.8864 37.152 87.8864 38.976C87.8864 39.536 87.8304 40.032 87.7184 40.464ZM79.3904 37.704H83.9984C83.6944 36.584 82.9424 36.024 81.7424 36.024C80.5104 36.024 79.7264 36.584 79.3904 37.704ZM93.5813 33V35.232C93.8053 34.464 94.2453 33.864 94.9013 33.432C95.5733 32.984 96.3333 32.76 97.1813 32.76V37.176C96.2693 37.032 95.4373 37.2 94.6853 37.68C93.9493 38.16 93.5813 38.944 93.5813 40.032V45H89.5973V33H93.5813Z" fill="#8B63FF"/>
</svg>
